<svg width="13" height="11" viewBox="0 0 13 11" fill="none" xmlns="http://www.w3.org/2000/svg">
<g opacity="0.7" clip-path="url(#clip0)">
<path d="M13 8.34589C12.7961 8.91657 12.3627 9.12582 11.7357 9.11156C10.7976 9.08778 9.85961 9.10205 8.91647 9.11156C8.78902 9.11156 8.64118 9.17338 8.54941 9.25423C7.98353 9.76309 7.43294 10.2862 6.87216 10.8046C6.59176 11.0662 6.39804 11.0662 6.11765 10.7998C5.56196 10.2767 5.01647 9.74882 4.45569 9.23521C4.37922 9.16387 4.24157 9.11156 4.12941 9.1068C3.1149 9.09729 2.10039 9.10205 1.08078 9.10205C0.418039 9.10205 0 8.70732 0 8.07957C0 5.72548 0 3.37616 0 1.02207C0 0.399075 0.423137 0.00910585 1.10118 0.00435013C4.64431 0.00435013 8.19255 0.00910585 11.7357 -0.000405592C12.3627 -0.00516131 12.7961 0.194579 13 0.765266C13 3.29055 13 5.81584 13 8.34589Z" fill="#2D3E50"/>
<path d="M6.48976 1.6221C7.38191 1.61735 8.18231 2.10243 8.43721 2.80152C8.69721 3.52439 8.40152 4.33287 7.69289 4.84648C7.37172 5.07951 7.03015 5.28877 6.94348 5.72154C6.8976 5.94506 6.65289 6.04968 6.39799 6.00688C6.13289 5.96408 5.93407 5.79287 5.97486 5.55033C6.02074 5.26974 6.1176 4.97489 6.29093 4.74661C6.48466 4.4898 6.78035 4.29006 7.04544 4.08557C7.39721 3.81449 7.56035 3.45306 7.44819 3.13442C7.33093 2.81104 6.94348 2.59227 6.47956 2.60178C5.99015 2.61129 5.63329 2.81104 5.41407 3.22954C5.25093 3.54342 4.99093 3.6528 4.71054 3.54342C4.41486 3.42452 4.32309 3.15345 4.46584 2.8253C4.79211 2.09768 5.58231 1.62686 6.48976 1.6221Z" fill="white"/>
<path d="M6.46431 6.50594C6.7447 6.50118 6.98431 6.70568 6.99451 6.972C7.0047 7.23832 6.78549 7.46184 6.50509 7.47611C6.2094 7.49037 5.96469 7.27161 5.95959 6.99578C5.95959 6.72946 6.18391 6.5107 6.46431 6.50594Z" fill="white"/>
</g>
<defs>
<clipPath id="clip0">
<rect width="13" height="11" fill="white"/>
</clipPath>
</defs>
</svg>
