<svg width="66" height="43" viewBox="0 0 66 43" fill="none" xmlns="http://www.w3.org/2000/svg">
<circle cx="20" cy="20" r="20" fill="#DDE493"/>
<path d="M64.9852 25.6086C64.9705 24.698 64.9631 23.7578 64.9631 22.8325C64.9631 22.2032 64.6974 21.7664 64.1513 21.4851C63.2362 21.0261 62.3284 20.5672 61.4133 20.1082C59.583 19.1828 57.6937 18.2278 55.8192 17.3099C55.4723 17.1396 54.9262 17.1396 54.5572 17.3099C53.6199 17.7466 52.69 18.213 51.7897 18.672C51.428 18.8571 51.0664 19.0348 50.6974 19.2198C50.6974 19.2198 50.69 19.2198 50.69 19.2272V5.22088H52.5277C53.1402 5.22088 53.6347 4.72488 53.6347 4.11044C53.6347 3.496 53.1402 3 52.5277 3H22.6162C22.0037 3 21.5092 3.496 21.5092 4.11044V4.13265C21.5092 4.74709 22.0037 5.24309 22.6162 5.24309H24.4686V20.2488H18.7417C18.1292 20.2488 17.6347 20.7448 17.6347 21.3593V21.4259C17.6347 22.0403 18.1292 22.5363 18.7417 22.5363H19.5978V40.0887H16.107C15.4945 40.0887 15 40.5847 15 41.1991C15 41.8136 15.4945 42.3096 16.107 42.3096H60.3358C60.9483 42.3096 61.4428 41.8136 61.4428 41.1991V41.1473C61.4428 40.5329 60.9483 40.0369 60.3358 40.0369H59.6642C62.941 37.964 64.7122 34.9881 64.9262 31.1756C65.0295 29.3174 65.0074 27.4371 64.9852 25.6086ZM50.7638 40.1183H50.6015V40.0147L50.7638 40.1183ZM42.8893 36.935V39.9776H32.2915V36.935H42.8893ZM48.3432 39.911C48.3432 39.9702 48.3432 40.0295 48.3432 40.0887H45.2288V39.2151C45.2288 38.2083 45.2288 37.209 45.2288 36.2096C45.2288 35.0547 44.8376 34.6623 43.6863 34.6623C39.6125 34.6623 35.5314 34.6623 31.4576 34.6623C30.3063 34.6623 29.9373 35.0399 29.9299 36.217C29.9299 37.1941 29.9299 38.1713 29.9299 39.1633V40.0813H26.9262V5.2801H48.3432C48.3506 5.36894 48.3506 5.45037 48.3506 5.5318C48.3506 6.75329 48.3506 7.96737 48.3506 9.18885C48.3506 12.7645 48.3506 16.4659 48.3653 20.1008C48.3653 20.4043 48.2915 20.4857 48.0627 20.5894C47.7011 20.7596 47.3395 20.9447 46.9926 21.1224C46.7565 21.2482 46.5129 21.3741 46.2694 21.4925C45.738 21.7516 45.4723 22.1884 45.4723 22.788C45.4723 23.8541 45.4723 24.9349 45.4723 25.9861C45.4723 28.0219 45.4649 30.1317 45.4945 32.2046C45.5018 32.745 45.6421 33.3594 45.9077 34.0405L45.9594 34.1663C46.4834 35.4915 47.0295 36.861 48.0775 37.9492C48.2989 38.1787 48.3727 38.3786 48.3579 38.6969C48.3358 39.1041 48.3358 39.4965 48.3432 39.911ZM47.7675 23.5727C47.7675 23.3507 47.7971 23.2988 47.9742 23.21C49.0295 22.6844 50.0923 22.1366 51.1255 21.6184C52.3875 20.9743 53.7011 20.3081 54.9926 19.664C55.0443 19.6418 55.1181 19.627 55.1993 19.627C55.3026 19.627 55.4059 19.6418 55.4797 19.6788C56.7048 20.2784 57.952 20.9003 59.155 21.4999C60.2251 22.0329 61.3247 22.5882 62.417 23.1212C62.6384 23.2322 62.6753 23.2988 62.6679 23.5727C62.6531 24.4981 62.6531 25.4383 62.6531 26.3414C62.6531 26.6968 62.6531 27.0521 62.6531 27.4001C62.6458 27.5037 62.6531 27.6592 62.6531 27.9183C62.6679 28.8436 62.69 30.7684 62.5498 31.8418C62.1292 35.0917 60.2989 37.3792 56.941 38.845C55.7602 39.3632 54.6679 39.3558 53.4059 38.8302C49.8709 37.3644 47.7602 34.2256 47.7675 30.4279V29.4507C47.7749 27.5333 47.7749 25.5345 47.7675 23.5727ZM24.4908 22.5808V40.0295H21.8856V22.5808H24.4908Z" fill="#2D3E50"/>
<path d="M39.3912 18.7611C38.0554 18.7389 36.7417 18.7463 35.7528 18.7611C35.1255 18.7685 34.6679 19.183 34.6458 19.7752C34.6163 20.5303 34.6236 21.2927 34.631 22.0255V22.1588C34.6384 22.788 35.1476 23.2913 35.7676 23.2913H35.7823C36.4096 23.2913 36.9188 22.7806 36.9188 22.1514V21.0854H38.2768V22.1662C38.2768 22.7954 38.786 23.3062 39.4133 23.3062H39.4281C40.0554 23.3062 40.5646 22.7954 40.5646 22.1662V22.0329C40.5646 21.3297 40.572 20.6709 40.5572 19.9973C40.5351 19.2496 40.0923 18.7685 39.3912 18.7611Z" fill="#2D3E50"/>
<path d="M39.4059 26.7854H39.2878C38.1291 26.7632 36.9262 26.741 35.7454 26.8076C35.3247 26.8298 34.6974 27.3184 34.6679 27.77C34.6088 28.5474 34.6162 29.3395 34.6236 30.1094V30.2057C34.631 30.8276 35.1402 31.3384 35.7601 31.3384C36.3874 31.3384 36.8967 30.8276 36.8967 30.1983V29.11H38.2546V30.1761C38.2546 30.8053 38.7638 31.3162 39.3911 31.3162H39.4059C40.0332 31.3162 40.5424 30.8053 40.5424 30.1761V30.0502C40.5424 29.3321 40.5498 28.6584 40.5351 27.9699C40.5351 27.2666 40.0849 26.7928 39.4059 26.7854Z" fill="#2D3E50"/>
<path d="M34.6383 13.7713C34.6457 14.3931 35.1549 14.8965 35.7675 14.8965C36.3948 14.8965 36.8966 14.3857 36.8966 13.7639V12.6831H38.262V13.7639C38.262 14.3931 38.7712 14.8965 39.3911 14.8965H39.4133C40.0332 14.8965 40.5424 14.3931 40.5424 13.7713V13.6232C40.5498 12.8756 40.5572 12.1797 40.5276 11.4543C40.4981 10.8029 40.0332 10.3661 39.3542 10.3587C39.1181 10.3587 38.8893 10.3587 38.6531 10.3513C37.7085 10.3439 36.7269 10.3365 35.7601 10.3809C35.3616 10.4031 34.6974 10.8103 34.6679 11.2618C34.6088 12.0761 34.6162 12.8978 34.6236 13.6899L34.6383 13.7713Z" fill="#2D3E50"/>
<path d="M51.1476 30.8355L51.5683 31.1982C52.3727 31.8941 53.1328 32.5456 53.9151 33.212C54.2325 33.4859 54.5203 33.6191 54.8007 33.6191C55.1255 33.6191 55.4281 33.4341 55.7675 33.0639C56.5424 32.1977 57.3321 31.3167 58.0923 30.4579L58.8745 29.5843C59.5978 28.7773 60.3137 27.9703 61.0443 27.1486L61.4871 26.6451C61.6864 26.423 61.7897 26.1269 61.7749 25.8234C61.7602 25.5198 61.6273 25.2459 61.3985 25.0386L61.3616 25.0016C61.1329 24.8017 60.845 24.698 60.5424 24.7202C60.2399 24.7351 59.9668 24.8757 59.7675 25.0978L54.941 30.5467C54.8007 30.7022 54.5572 30.7244 54.3948 30.5837L52.6236 29.0809C52.3948 28.8884 52.0996 28.7921 51.7971 28.8143C51.4945 28.8439 51.2214 28.9846 51.0295 29.2141L51.0221 29.2289C50.6236 29.7175 50.6827 30.4283 51.1476 30.8355Z" fill="#2D3E50"/>
</svg>
