<svg width="65" height="42" viewBox="0 0 65 42" fill="none" xmlns="http://www.w3.org/2000/svg">
<circle cx="20" cy="21" r="20" fill="#F9D88D"/>
<path d="M64.656 2.13523C64.1324 1.1957 63.3097 0.54243 62.2027 0.190106C60.7966 -0.26498 59.7569 0.0873447 58.9342 1.3058C58.7397 1.5994 58.5378 1.88567 58.3433 2.17927C57.7674 3.03072 57.1616 3.91153 56.6006 4.79234C56.3912 5.11531 56.1743 5.23275 55.7629 5.23275C44.0127 5.22541 32.0681 5.22541 20.5198 5.22541H16.4286C15.3815 5.22541 15 5.59975 15 6.598C15 15.5089 15 24.4124 15 33.3233C15 33.8224 15.0972 34.1527 15.3141 34.3656C15.531 34.5784 15.8676 34.6738 16.3762 34.6738C22.9282 34.6738 29.9514 34.6665 37.8646 34.6665C38.7696 34.6665 39.1735 34.2775 39.1735 33.4114C39.1735 32.0828 39.1735 30.7542 39.1735 29.4257C39.1735 27.7815 39.1735 26.0786 39.181 24.4051C39.181 24.0014 39.1137 23.4362 38.4929 23.1866C37.8721 22.9444 37.4159 23.2967 37.1242 23.583C36.2715 24.4271 35.4039 25.2785 34.5587 26.108C34.2072 26.4529 33.8482 26.7979 33.4966 27.1503L33.4667 27.1796C33.4144 27.231 33.362 27.2824 33.3171 27.3338C32.9357 27.7962 32.9432 28.3981 33.3396 28.8018C33.7734 29.2422 34.4166 29.2569 34.8729 28.8385C35.2917 28.4568 35.6956 28.0531 36.092 27.6641C36.2939 27.4659 36.4959 27.2677 36.6978 27.0695C36.7651 27.0035 36.8325 26.9447 36.9222 26.8787C36.9297 26.8713 36.9372 26.864 36.9447 26.864V32.5012H17.2364V7.42009H36.9297V17.5861H36.3538C35.8826 17.5861 35.4114 17.5861 34.9476 17.5861C33.7809 17.5861 32.5692 17.5861 31.38 17.5935C30.7143 17.6008 30.2356 18.0265 30.2132 18.6284C30.1907 19.2303 30.647 19.6854 31.3126 19.7441C31.4548 19.7588 31.6043 19.7514 31.7464 19.7514C31.7913 19.7514 31.8362 19.7514 31.8886 19.7514H34.6933C35.7105 19.7514 36.7203 19.7514 37.7375 19.7514C38.2984 19.7514 38.65 19.656 38.8669 19.4358C39.0838 19.2156 39.181 18.8706 39.181 18.3128C39.181 15.7511 39.181 13.1967 39.181 10.6351V7.42009H54.7906C54.7756 7.44945 54.7532 7.47147 54.7382 7.50083C54.6634 7.61828 54.6036 7.72104 54.5363 7.81646L52.4645 10.8846C50.1309 14.3418 47.715 17.9238 45.3441 21.4397C45.1346 21.7553 44.9776 22.0856 44.8803 22.4086C44.439 23.9647 43.9978 25.5575 43.5789 27.0915C43.4592 27.5319 43.3396 27.9723 43.2124 28.4201C43.0254 29.0954 43.1451 29.5431 43.5939 29.8441C44.0501 30.145 44.5213 30.0863 45.0823 29.6532C45.4413 29.3743 45.8003 29.0954 46.1668 28.8238C47.4383 27.8476 48.7547 26.8346 50.0411 25.829C50.3478 25.5868 50.6171 25.3079 50.819 25.0069C53.2872 21.3663 55.7853 17.6595 58.2087 14.0776C58.9716 12.9398 59.742 11.8095 60.5049 10.6718C60.5722 10.5763 60.6395 10.4883 60.7218 10.3708C60.7292 10.3635 60.7367 10.3488 60.7442 10.3414V39.7899H50.7741V38.9238C50.7741 38.4246 50.7741 37.9255 50.7741 37.4264C50.7741 36.1859 50.7741 34.9014 50.7666 33.6389C50.7592 32.993 50.3104 32.5159 49.6971 32.5012C49.1062 32.4865 48.6275 32.9636 48.5752 33.6022C48.5677 33.6903 48.5677 33.7784 48.5677 33.8664C48.5677 33.8958 48.5677 33.9325 48.5677 33.9619V35.3271C48.5677 37.0374 48.5677 38.7476 48.5677 40.4505C48.5677 41.6396 48.9192 41.9846 50.1309 41.9846C50.5946 41.9846 51.0583 41.9846 51.5221 41.9846C53.7135 41.9846 55.9125 41.9846 58.104 41.9846H61.365C62.6739 41.9846 62.9731 41.691 62.9731 40.4065V34.8353C62.9731 25.9905 62.9731 16.8448 62.9656 7.84582C62.9656 7.18521 63.1077 6.73013 63.4293 6.3044C63.7435 5.9007 64.0277 5.46763 64.2969 5.04925C64.3867 4.90978 64.4764 4.77032 64.5737 4.63086C65.1047 3.83813 65.1346 2.99402 64.656 2.13523ZM47.5505 22.0636L57.356 7.54488L59.1735 8.72663L49.368 23.2453L47.5505 22.0636ZM47.7898 24.8234L46.1369 26.1006L46.6904 24.1041L47.7898 24.8234ZM60.6619 6.5246L60.3852 6.91363L58.5901 5.75389L58.8519 5.35019L60.6619 6.5246ZM62.4196 3.91887C62.2924 4.10971 62.1578 4.30056 62.0307 4.4914L61.896 4.69692L60.086 3.52251C60.1533 3.41975 60.2206 3.32432 60.2805 3.22156C60.4749 2.92062 60.6619 2.6417 60.8714 2.37745C60.9611 2.26735 61.2079 2.18661 61.35 2.21597C61.6043 2.26735 61.8811 2.39213 62.1503 2.5683C62.831 3.0087 62.8758 3.25092 62.4196 3.91887Z" fill="#2D3E50"/>
</svg>
