<svg width="54" height="43" viewBox="0 0 54 43" fill="none" xmlns="http://www.w3.org/2000/svg">
<circle cx="20" cy="20" r="20" fill="#F9D88D"/>
<path d="M51.1095 2.71707C48.5392 0.348261 44.6557 0.43689 42.1499 2.94267C37.9763 7.10016 33.8027 11.2738 29.6452 15.4554C29.4438 15.6649 29.2665 15.7213 28.9845 15.6408C27.4214 15.1976 25.8342 15.0768 24.2066 15.2298C18.7358 15.7374 13.9418 19.7338 12.4995 25.0354C12.2659 25.8814 12.1611 26.7596 12 27.6298C12 28.3308 12 29.0237 12 29.7247C12.145 30.5223 12.2417 31.3442 12.4512 32.1257C13.9015 37.6126 18.5424 41.5607 24.1985 42.1247C24.2872 42.1327 24.3758 42.173 24.4644 42.1891C25.1654 42.1891 25.8583 42.1891 26.5593 42.1891C26.6479 42.1649 26.7366 42.1327 26.8252 42.1247C28.5816 41.9716 30.2414 41.464 31.7884 40.6341C37.3398 37.669 40.1195 31.3845 38.6209 25.4705C38.5645 25.2449 38.6048 25.1079 38.7659 24.9468C39.338 24.3989 39.8778 23.8188 40.4498 23.279C40.8124 22.9325 40.9736 22.5296 40.9655 22.0301C40.9494 20.9182 40.9574 19.8063 40.9655 18.6944C40.9655 18.2352 41.1428 18.066 41.602 18.066C42.2063 18.0579 42.8106 18.074 43.4149 18.0579C45.0988 18.0015 46.396 16.6882 46.4283 15.0042C46.4363 14.4564 46.4283 13.9085 46.4283 13.3525C46.4283 12.7402 46.5733 12.6032 47.1856 12.5951C48.3056 12.579 49.4416 12.716 50.5374 12.3534C50.8355 12.2567 51.1498 12.1198 51.3592 11.9022C53.8811 9.34006 53.7522 5.14227 51.1095 2.71707ZM49.8767 9.69457C49.6592 9.99269 49.353 10.0007 49.0549 10.0088C48.37 10.0249 47.6852 10.0088 47.0003 10.0169C45.1955 10.0249 43.858 11.3705 43.85 13.1753C43.85 13.7393 43.858 14.3033 43.85 14.8673C43.8419 15.2943 43.6647 15.4716 43.2296 15.4796C42.6495 15.4877 42.0774 15.4796 41.4973 15.4796C39.765 15.4957 38.4194 16.8171 38.3872 18.5494C38.3792 19.0167 38.3872 19.484 38.3872 19.9594C38.3872 19.9836 38.3872 20.0158 38.3872 20.04C38.3792 20.5879 38.5242 21.2002 38.3228 21.6675C38.1294 22.1348 37.6057 22.4813 37.2109 22.86C37.0578 23.005 36.8725 23.1178 36.6791 23.2064C35.7767 23.5932 35.5108 24.1814 35.825 25.0999C37.7507 30.7479 34.8904 36.823 29.3229 38.926C22.9013 41.3512 15.7869 37.2178 14.7072 30.4337C13.7323 24.2055 18.1073 18.4849 24.3677 17.8001C25.9792 17.6228 27.5503 17.8081 29.0731 18.348C29.7499 18.5897 30.2817 18.4527 30.7812 17.9532C35.1643 13.554 39.5555 9.17086 43.9467 4.78776C45.3244 3.41804 47.4676 3.23273 49.0227 4.33656C50.7227 5.53708 51.1095 8.02674 49.8767 9.69457Z" fill="#2D3E50"/>
<path d="M23.5862 26.7434C21.4833 26.7354 19.7268 28.4677 19.7268 30.5625C19.7188 32.7219 21.4511 34.4703 23.5862 34.4703C25.7133 34.4703 27.4456 32.738 27.4537 30.6109C27.4456 28.4838 25.7133 26.7515 23.5862 26.7434ZM23.554 31.892C22.853 31.8758 22.289 31.2877 22.2971 30.5867C22.3051 29.8857 22.8933 29.3137 23.5943 29.3217C24.3033 29.3298 24.8673 29.9099 24.8673 30.6109C24.8673 31.3199 24.263 31.9081 23.554 31.892Z" fill="#2D3E50"/>
</svg>
