<svg width="57" height="43" viewBox="0 0 57 43" fill="none" xmlns="http://www.w3.org/2000/svg">
<circle cx="20" cy="21" r="20" fill="#95AEC6"/>
<path d="M57 34.1532C56.976 34.2174 56.9439 34.2736 56.9278 34.3378C56.5267 35.9104 55.2108 36.8411 53.5901 36.6967C53.0364 36.6485 52.4748 36.6245 51.873 36.5843C51.873 37.1941 51.873 37.7638 51.873 38.3335C51.873 40.2431 50.501 41.583 48.6075 41.4546C43.7051 41.1256 38.8188 41.3824 33.9325 41.6552C29.4795 41.8959 25.0345 42.1446 20.5734 41.92C20.0038 41.8879 19.4261 41.8718 18.8564 41.7836C17.2036 41.5188 16.0081 40.0986 16 38.4217C15.992 32.8855 15.992 27.3493 16 21.8131C16 20.0239 17.364 18.7161 19.1533 18.7722C19.7951 18.7883 20.429 18.8444 21.127 18.8765C21.127 18.2908 21.127 17.7372 21.127 17.1836C21.127 15.1697 22.5793 13.91 24.5852 13.9822C27.4495 14.0865 30.322 14.1427 33.1863 14.0785C38.7306 13.9501 44.2668 13.3804 49.819 13.4767C51.1349 13.5008 52.4587 13.557 53.7746 13.6452C55.3632 13.7495 56.5427 14.7685 56.9198 16.317C56.9358 16.3973 56.9679 16.4695 57 16.5417C57 22.4069 57 28.28 57 34.1532ZM23.6865 25.3675C23.6865 28.0795 23.6865 30.7834 23.6865 33.4953C23.6865 34.1532 23.9433 34.4581 24.6012 34.5063C28.0834 34.763 31.5576 34.6828 35.0398 34.5303C39.0114 34.3538 42.983 34.1532 46.9546 33.9928C48.3266 33.9366 49.6987 33.9767 51.0707 34.0008C51.9773 34.0168 52.884 34.089 53.7906 34.1372C54.264 34.1613 54.4325 34.0088 54.4405 33.5515C54.4405 33.3348 54.4405 33.1262 54.4405 32.9096C54.4405 27.6783 54.4405 22.447 54.4405 17.2237C54.4405 16.5337 54.1998 16.2448 53.5098 16.1887C52.6995 16.1245 51.8891 16.0844 51.0707 16.0603C45.7672 15.8998 40.4877 16.3331 35.2002 16.5818C31.6137 16.7503 28.0272 16.8225 24.4407 16.5658C23.847 16.5256 23.6946 16.654 23.6946 17.2478C23.6865 19.9517 23.6946 22.6556 23.6865 25.3675ZM21.127 21.444C20.4691 21.4039 19.8754 21.3638 19.2736 21.3317C18.6799 21.2996 18.5676 21.4119 18.5676 22.0057C18.5676 24.3405 18.5676 26.6753 18.5676 29.0102C18.5676 32.0912 18.5676 35.1722 18.5676 38.2532C18.5676 38.9513 18.8564 39.2401 19.5544 39.2722C19.9155 39.2883 20.2766 39.3284 20.6296 39.3444C25.5319 39.5932 30.4182 39.2562 35.3045 38.9994C38.9392 38.8069 42.5818 38.6143 46.2245 38.7667C47.0509 38.7988 47.8773 38.8389 48.7038 38.8871C49.0006 38.9031 49.2814 38.847 49.2975 38.51C49.3296 37.8601 49.3055 37.2102 49.3055 36.5121C49.0086 36.5121 48.7439 36.5041 48.4791 36.5121C43.4163 36.7207 38.3535 36.9855 33.2906 37.1219C30.33 37.2022 27.3693 37.1299 24.4167 37.0256C22.4108 36.9534 21.1351 35.4771 21.1351 33.4712C21.1351 29.6521 21.1351 25.8409 21.1351 22.0217C21.127 21.8452 21.127 21.6607 21.127 21.444Z" fill="#2D3E50"/>
<path d="M39.4607 1.00021C39.7656 1.26499 40.0946 1.51371 40.3834 1.79454C41.4907 2.89375 42.5979 4.00099 43.6971 5.10021C44.3069 5.70999 44.355 6.47223 43.8175 7.01782C43.2719 7.57144 42.5016 7.53133 41.8758 6.90549C41.4024 6.43211 40.929 5.96675 40.4556 5.49336C40.4396 5.47731 40.4075 5.48534 40.3433 5.46929C40.3433 5.60569 40.3433 5.73407 40.3433 5.86244C40.3433 7.19434 40.3433 8.53426 40.3433 9.86616C40.3433 10.6765 39.7977 11.2542 39.0595 11.2462C38.3134 11.2382 37.7838 10.6765 37.7838 9.85011C37.7758 8.51821 37.7838 7.17829 37.7838 5.84639C37.7838 5.71802 37.7838 5.58964 37.7838 5.34894C37.174 5.96675 36.6445 6.51234 36.1069 7.03387C35.6977 7.42702 35.1521 7.49923 34.6627 7.26655C34.1893 7.04189 33.8683 6.54444 33.9566 6.03093C34.0047 5.73407 34.1492 5.4051 34.3578 5.18847C35.6094 3.88866 36.8852 2.62095 38.1609 1.35324C38.3053 1.20882 38.4979 1.11254 38.6664 0.992188C38.9312 1.00021 39.1959 1.00021 39.4607 1.00021Z" fill="#2D3E50"/>
<path d="M37.7517 26.6594C37.0938 26.6273 36.4519 26.6514 35.8261 26.5551C33.7801 26.2342 32.4402 24.5011 32.5766 22.423C32.705 20.5696 34.3819 19.0131 36.3476 18.9489C36.813 18.9328 37.2783 18.9489 37.7838 18.9489C37.7838 18.5076 37.7838 18.1064 37.7838 17.6812C38.6504 17.6812 39.4688 17.6812 40.3353 17.6812C40.3353 18.0903 40.3353 18.4915 40.3353 18.9408C41.2179 18.9408 42.0523 18.9328 42.8868 18.9408C43.8416 18.9489 44.4594 19.8716 44.0903 20.7301C43.8656 21.2436 43.4484 21.5003 42.8868 21.5003C42.0603 21.5084 41.2339 21.5003 40.3834 21.5003C40.3834 22.3588 40.3834 23.1853 40.3834 24.0277C41.0093 24.0598 41.6351 24.0518 42.2449 24.1401C44.2106 24.4449 45.6067 26.2262 45.4703 28.1839C45.3339 30.0935 43.6811 31.6661 41.7314 31.7383C41.2901 31.7543 40.8568 31.7383 40.3674 31.7383C40.3674 32.1635 40.3674 32.5727 40.3674 32.998C39.4928 32.998 38.6584 32.998 37.7999 32.998C37.7999 32.5888 37.7999 32.1956 37.7999 31.7383C37.2864 31.7383 36.7969 31.7383 36.3075 31.7383C35.9464 31.7383 35.5854 31.7463 35.2243 31.7383C34.5022 31.7222 33.9486 31.1686 33.9486 30.4706C33.9406 29.7565 34.5022 29.1868 35.2404 29.1788C36.0668 29.1708 36.8932 29.1788 37.7517 29.1788C37.7517 28.3444 37.7517 27.5099 37.7517 26.6594ZM37.7678 21.5084C37.2783 21.5084 36.829 21.4843 36.3797 21.5164C35.6817 21.5565 35.1521 22.0941 35.128 22.7359C35.104 23.3939 35.5854 23.9635 36.2834 24.0438C36.7648 24.0919 37.2623 24.0518 37.7678 24.0518C37.7678 23.1933 37.7678 22.3749 37.7678 21.5084ZM40.3754 26.6273C40.3754 27.5019 40.3754 28.3363 40.3754 29.1788C40.8167 29.1788 41.2259 29.2029 41.6351 29.1708C42.3572 29.1307 42.9189 28.5449 42.9028 27.879C42.8948 27.2291 42.3412 26.6675 41.6351 26.6273C41.2259 26.6113 40.8167 26.6273 40.3754 26.6273Z" fill="#2D3E50"/>
<path d="M50.5893 17.665C51.3033 17.665 51.865 18.2187 51.873 18.9247C51.881 19.6388 51.2873 20.2245 50.5732 20.2165C49.8752 20.2085 49.3055 19.6308 49.3135 18.9327C49.3135 18.2267 49.8832 17.665 50.5893 17.665Z" fill="#2D3E50"/>
<path d="M27.5298 30.4785C28.2439 30.4785 28.8055 31.0321 28.8135 31.7382C28.8216 32.4523 28.2278 33.038 27.5137 33.03C26.8157 33.022 26.246 32.4443 26.2541 31.7462C26.2541 31.0321 26.8157 30.4785 27.5298 30.4785Z" fill="#2D3E50"/>
</svg>
