<svg width="52" height="43" viewBox="0 0 52 43" fill="none" xmlns="http://www.w3.org/2000/svg">
<circle cx="20" cy="21" r="20" fill="#DDE493"/>
<path d="M16 21.9538C16 15.665 16 9.38448 16 3.09567C16 2.29196 16.3034 1.67053 17.0197 1.28939C17.7445 0.908252 18.4524 0.999394 19.1182 1.44682C19.6492 1.8031 20.197 2.14281 20.7279 2.50738C21.1746 2.81395 21.6044 2.81395 22.051 2.4991C22.4724 2.2091 22.9107 1.92739 23.3489 1.65396C24.7226 0.792253 26.1132 0.783967 27.4953 1.64568C27.9588 1.93567 28.4055 2.23396 28.8606 2.54053C29.2651 2.81395 29.6696 2.81395 30.0742 2.54881C30.5377 2.24224 31.0012 1.9191 31.4732 1.6291C32.83 0.800538 34.1953 0.792252 35.5521 1.6291C36.0241 1.9191 36.4876 2.23396 36.9511 2.54053C37.3556 2.80567 37.7602 2.80567 38.1647 2.53224C38.6282 2.22567 39.0917 1.91082 39.5637 1.61253C40.9037 0.792253 42.2605 0.783967 43.6005 1.60425C44.0809 1.89425 44.536 2.2091 44.9995 2.51567C45.4209 2.79738 45.8254 2.79738 46.2468 2.51567C46.7946 2.1511 47.3424 1.8031 47.8902 1.43853C48.5644 0.982823 49.2723 0.899966 49.9887 1.28111C50.7135 1.66225 51.0084 2.30024 51.0084 3.09567C51.0084 14.6624 51.0084 26.2292 51.0084 37.796C51.0084 38.84 51.0084 39.8923 51.0084 40.9363C51.0084 41.7234 50.6966 42.3365 49.9887 42.7094C49.2808 43.0823 48.5897 43.0077 47.9239 42.5685C47.3677 42.204 46.803 41.8394 46.2468 41.4665C45.8254 41.1848 45.4125 41.1848 44.9995 41.4665C44.536 41.7731 44.0809 42.0963 43.6005 42.3863C42.2521 43.1982 40.9037 43.1982 39.5637 42.378C39.1086 42.1045 38.6704 41.8063 38.2321 41.508C37.777 41.1931 37.3388 41.1848 36.8753 41.4997C36.437 41.798 35.9988 42.0963 35.5437 42.3697C34.1869 43.2065 32.8216 43.2065 31.4732 42.3697C31.0433 42.1045 30.6304 41.8228 30.209 41.5494C29.6022 41.1517 29.3325 41.1517 28.7173 41.5577C28.2959 41.8311 27.883 42.1211 27.4532 42.378C26.0963 43.2065 24.731 43.1983 23.3742 42.3614C22.9022 42.0714 22.4387 41.7483 21.9752 41.4417C21.5791 41.1848 21.1914 41.1931 20.7953 41.4417C20.2222 41.8145 19.6492 42.1874 19.0845 42.5685C18.4187 42.9994 17.7277 43.0823 17.0197 42.7011C16.3118 42.3365 16 41.7234 16 40.9363C16.0084 34.6143 16 28.2841 16 21.9538ZM18.7306 4.37994C18.7306 16.1456 18.7306 27.8615 18.7306 39.6106C18.916 39.4946 19.0592 39.4034 19.1941 39.3123C20.6689 38.3511 22.1185 38.3511 23.5849 39.3206C23.9894 39.5857 24.4024 39.8508 24.8069 40.1243C25.2114 40.3977 25.6075 40.3977 26.0205 40.1243C26.5008 39.8094 26.9728 39.4863 27.4616 39.188C28.7763 38.3926 30.1079 38.3843 31.431 39.1714C31.9114 39.4531 32.3749 39.768 32.83 40.0828C33.2767 40.3894 33.698 40.406 34.1531 40.0911C34.5914 39.7928 35.0296 39.4946 35.4847 39.2211C36.85 38.376 38.2321 38.3677 39.5974 39.2211C40.0693 39.5111 40.5329 39.826 40.9964 40.1326C41.3925 40.3894 41.7802 40.3894 42.1678 40.1326C42.5976 39.8508 43.0274 39.5691 43.4657 39.2874C44.8815 38.3677 46.3479 38.3677 47.7554 39.2791C47.9239 39.3868 48.0925 39.4946 48.2779 39.6106C48.2779 27.8366 48.2779 16.129 48.2779 4.37166C48.0756 4.50423 47.9071 4.60366 47.7469 4.71137C46.3311 5.61451 44.9152 5.62279 43.491 4.71965C43.0443 4.43794 42.6061 4.13966 42.1594 3.84966C41.7633 3.5928 41.3756 3.58452 40.988 3.84966C40.4992 4.1728 40.0188 4.50423 39.5131 4.8108C38.19 5.59793 36.8668 5.59793 35.5437 4.80251C35.0633 4.51251 34.5998 4.20594 34.1447 3.89109C33.698 3.57623 33.2682 3.5928 32.83 3.89937C32.3833 4.20594 31.9282 4.51251 31.4647 4.79423C30.1332 5.59793 28.7932 5.59793 27.4616 4.79423C26.9728 4.49594 26.5008 4.1728 26.0205 3.85795C25.6159 3.58452 25.2198 3.58452 24.8069 3.85795C24.3181 4.18109 23.8377 4.5208 23.332 4.81908C22.0342 5.59793 20.7195 5.58965 19.4048 4.8108C19.1941 4.68651 18.9834 4.54566 18.7306 4.37994Z" fill="#2D3E50"/>
<path d="M33.462 15.3839C30.8157 15.3839 28.1694 15.3921 25.5147 15.3839C24.4444 15.3839 23.7702 14.4227 24.2 13.5196C24.4613 12.9644 24.9332 12.7324 25.5569 12.7324C28.8605 12.7407 32.1725 12.7324 35.4762 12.7324C37.5072 12.7324 39.5383 12.7242 41.5694 12.7324C42.2773 12.7324 42.8419 13.2379 42.9178 13.909C42.9936 14.5801 42.5385 15.2016 41.8643 15.3424C41.7042 15.3756 41.5272 15.3756 41.3671 15.3756C38.7292 15.3839 36.0914 15.3839 33.462 15.3839Z" fill="#2D3E50"/>
<path d="M33.5041 20.6786C30.8241 20.6786 28.1526 20.6786 25.4726 20.6786C24.8152 20.6786 24.3264 20.3224 24.141 19.7424C23.9725 19.2121 24.1326 18.6072 24.613 18.3172C24.8911 18.1515 25.2619 18.0438 25.5906 18.0438C29.9055 18.0272 34.2205 18.0355 38.5354 18.0355C39.513 18.0355 40.4991 18.0355 41.4767 18.0355C42.3026 18.0355 42.9009 18.5824 42.9178 19.3364C42.9347 20.1069 42.3279 20.6786 41.4851 20.6786C38.8304 20.6786 36.1673 20.6786 33.5041 20.6786Z" fill="#2D3E50"/>
<path d="M33.4621 25.9732C30.7989 25.9732 28.1358 25.9732 25.4727 25.9732C24.7984 25.9732 24.3012 25.6003 24.1242 25.0038C23.9641 24.4486 24.1832 23.8106 24.7142 23.5455C24.9839 23.4046 25.3294 23.3384 25.6328 23.3384C30.6641 23.3301 35.6954 23.3301 40.7183 23.3301C40.9542 23.3301 41.1986 23.3301 41.4346 23.3301C42.3195 23.3384 42.9263 23.8769 42.9179 24.6724C42.9094 25.4346 42.3026 25.9815 41.443 25.9815C38.7883 25.9732 36.1252 25.9732 33.4621 25.9732Z" fill="#2D3E50"/>
<path d="M38.6872 31.2676C37.7601 31.2676 36.8415 31.2676 35.9145 31.2676C35.0633 31.2676 34.4565 30.7042 34.4649 29.9336C34.4734 29.1631 35.0717 28.6162 35.9313 28.6162C37.777 28.6162 39.6311 28.6162 41.4767 28.6162C42.3279 28.6162 42.9347 29.1796 42.9263 29.9419C42.9179 30.7125 42.3195 31.2593 41.4599 31.2593C40.5328 31.2676 39.6142 31.2676 38.6872 31.2676Z" fill="#2D3E50"/>
</svg>
