<svg width="51" height="40" viewBox="0 0 51 40" fill="none" xmlns="http://www.w3.org/2000/svg">
<circle opacity="0.5" cx="20" cy="20" r="20" fill="#F3B01A"/>
<path d="M47.7781 0C47.8328 0.0228918 47.8954 0.0534142 47.9501 0.0686754C49.85 0.473097 51.1088 2.08315 50.9681 3.94502C50.8352 5.75347 49.3184 7.1804 47.395 7.31012C47.3403 7.31012 47.2934 7.31775 47.2308 7.32538C47.1214 8.08081 47.051 8.83624 46.9102 9.58403C46.3629 12.4989 45.2058 15.1467 43.1104 17.3291C42.4849 17.9853 41.7343 18.5271 41.0228 19.0994C40.671 19.3817 40.6475 19.6335 41.015 19.8853C43.8766 21.8159 45.5733 24.54 46.488 27.7372C46.8164 28.8895 46.9337 30.1027 47.1448 31.2855C47.1683 31.4076 47.1761 31.5296 47.1917 31.667C48.5131 31.728 49.5842 32.2317 50.3113 33.2999C51.1167 34.4827 51.2027 35.757 50.5303 37.016C49.8579 38.2751 48.7476 38.9771 47.2855 38.9847C39.7406 39.0076 32.1956 39 24.6507 38.9924C22.7117 38.9924 21.0541 37.3899 20.9994 35.4976C20.9368 33.5212 22.438 31.8578 24.4318 31.6975C24.5334 31.6899 24.635 31.6823 24.721 31.6746C24.8618 30.7666 24.9556 29.8738 25.1432 28.9963C25.8547 25.7075 27.3246 22.8231 29.983 20.6026C30.2879 20.3508 30.6241 20.1295 30.9447 19.893C31.2965 19.6412 31.3121 19.3665 30.9681 19.1375C27.4263 16.6958 25.7062 13.2162 24.9869 9.17198C24.8774 8.57679 24.8305 7.96635 24.7601 7.3559C24.4474 7.30248 24.119 7.27196 23.8141 7.19566C22.094 6.75308 20.9603 5.26511 20.9994 3.53297C21.0385 1.87713 22.2816 0.442575 23.9861 0.076306C24.0565 0.0610448 24.1268 0.0305224 24.1972 0C32.0549 0 39.9126 0 47.7781 0ZM44.6741 31.667C44.6116 30.4232 44.3848 29.2557 44.0174 28.1188C43.2042 25.6007 41.8907 23.4183 39.6077 21.8846C37.8094 20.6789 37.825 18.3134 39.6077 17.0849C40.241 16.65 40.843 16.1464 41.359 15.5893C43.0244 13.8038 43.9392 11.6519 44.4083 9.31696C44.5412 8.66836 44.6038 8.0045 44.7054 7.34064C38.8493 7.34064 33.0791 7.34064 27.2855 7.34064C27.3637 8.72178 27.6374 10.0342 28.0909 11.3085C28.9275 13.6511 30.2175 15.6809 32.3598 17.1078C34.1581 18.3058 34.1425 20.6866 32.3598 21.9151C31.7265 22.35 31.1245 22.8536 30.6006 23.4107C28.8414 25.3107 27.911 27.5999 27.4654 30.0951C27.3715 30.614 27.3325 31.1329 27.2621 31.6746C33.1104 31.667 38.8727 31.667 44.6741 31.667ZM35.9877 4.87595C39.6937 4.87595 43.3997 4.87595 47.1135 4.87595C47.911 4.87595 48.474 4.37233 48.4818 3.67032C48.4818 2.96067 47.9267 2.44179 47.137 2.44179C39.7093 2.44179 32.2816 2.44179 24.854 2.44179C24.0565 2.44179 23.4935 2.96067 23.5013 3.67032C23.5092 4.37233 24.0721 4.87595 24.8696 4.87595C28.5756 4.87595 32.2816 4.87595 35.9877 4.87595ZM35.972 36.5582C38.0127 36.5582 40.0533 36.5582 42.1018 36.5582C43.8063 36.5582 45.5107 36.5658 47.2152 36.5506C47.8876 36.5506 48.4036 36.0927 48.474 35.4747C48.5443 34.8566 48.13 34.2767 47.5045 34.1469C47.2934 34.1012 47.0666 34.1164 46.8477 34.1164C42.5006 34.1164 38.1534 34.1164 33.8141 34.1164C30.8352 34.1164 27.8563 34.1164 24.8774 34.1164C24.2519 34.1164 23.8063 34.3911 23.603 34.8795C23.259 35.7112 23.8844 36.5506 24.8618 36.5506C28.5522 36.5658 32.2582 36.5582 35.972 36.5582Z" fill="#2D3E50"/>
<path d="M30.9922 10.9728C30.9922 10.2937 31.5552 9.74428 32.251 9.75191C32.9312 9.75954 33.4864 10.3013 33.4864 10.9652C33.4864 11.6443 32.9234 12.1937 32.2276 12.1861C31.5473 12.1784 30.9922 11.6367 30.9922 10.9728Z" fill="#2D3E50"/>
<path d="M37.2392 10.9728C37.2392 11.6367 36.6763 12.1784 36.0039 12.1861C35.3002 12.1861 34.7451 11.6443 34.7451 10.9575C34.7451 10.2937 35.308 9.75189 35.9804 9.74426C36.6763 9.74426 37.2392 10.2937 37.2392 10.9728Z" fill="#2D3E50"/>
<path d="M40.9844 10.9651C40.9844 11.6442 40.4136 12.1936 39.7178 12.186C39.0376 12.1784 38.4903 11.629 38.4903 10.9651C38.4903 10.286 39.061 9.73659 39.7569 9.74422C40.4371 9.75948 40.9844 10.3089 40.9844 10.9651Z" fill="#2D3E50"/>
<path d="M37.2393 14.6431C37.2315 15.3222 36.6529 15.864 35.957 15.8411C35.2846 15.8259 34.7373 15.2688 34.7451 14.605C34.753 13.9258 35.3315 13.3841 36.0274 13.4069C36.6998 13.4222 37.2471 13.9792 37.2393 14.6431Z" fill="#2D3E50"/>
<path d="M34.7373 25.5702C34.7529 24.891 35.3315 24.3569 36.0273 24.3721C36.6997 24.3874 37.247 24.9444 37.2314 25.6083C37.2236 26.2874 36.6372 26.8216 35.9413 26.8063C35.2689 26.791 34.7294 26.234 34.7373 25.5702Z" fill="#2D3E50"/>
</svg>
