<svg width="61" height="44" viewBox="0 0 61 44" fill="none" xmlns="http://www.w3.org/2000/svg">
<circle opacity="0.5" cx="20" cy="22" r="20" fill="#BAC927"/>
<path d="M52.5195 43.9988C51.9053 43.9988 51.2911 43.9988 50.6686 43.9988C50.5928 43.9735 50.5171 43.9399 50.433 43.923C47.236 43.4686 44.8634 41.8193 43.2986 39.0003C43.1303 38.6974 42.9536 38.6133 42.6255 38.6133C35.5668 38.6217 28.4997 38.6217 21.441 38.6217C19.7836 38.6217 18.488 37.6035 18.0841 36.0047C18.0673 35.9205 18.0337 35.8448 18 35.769C18 26.0246 18 16.2802 18 6.54417C18.0337 6.43478 18.0673 6.3338 18.101 6.22441C18.4964 4.72656 19.8173 3.69995 21.3653 3.68312C22.1898 3.6747 23.0143 3.68312 23.8388 3.68312C24.1248 3.68312 24.4109 3.68312 24.7222 3.68312C24.7222 3.2203 24.7138 2.81638 24.7222 2.41247C24.7306 1.58781 25.2943 0.998771 26.0683 0.998771C26.8339 0.998771 27.3976 1.59623 27.406 2.41247C27.4144 2.8248 27.406 3.23713 27.406 3.64946C30.1235 3.64946 32.7905 3.64946 35.4659 3.64946C35.4659 3.25396 35.4659 2.89212 35.4659 2.53028C35.4659 1.60464 36.0043 0.990356 36.8204 0.998771C37.6281 1.00719 38.1581 1.61306 38.1581 2.54711C38.1581 2.91736 38.1581 3.28762 38.1581 3.64946C40.8756 3.64946 43.5426 3.64946 46.218 3.64946C46.218 3.2203 46.218 2.83321 46.218 2.43771C46.2264 1.58781 46.7901 0.990356 47.5725 0.990356C48.3381 0.998771 48.8934 1.58781 48.9018 2.41247C48.9018 2.8248 48.9018 3.23713 48.9018 3.6747C50.0376 3.6747 51.1145 3.6747 52.1913 3.6747C54.1348 3.6747 55.6155 5.16413 55.6155 7.10797C55.6155 13.2929 55.6155 19.4778 55.6071 25.6628C55.6071 25.9657 55.6913 26.1256 55.9689 26.2686C59.5109 28.1452 61.4375 31.9403 60.899 35.9457C60.3858 39.7324 57.458 42.888 53.6468 43.7547C53.2851 43.8473 52.8981 43.923 52.5195 43.9988ZM52.9233 14.4626C42.1628 14.4626 31.4359 14.4626 20.6922 14.4626C20.6922 15.3041 20.6922 16.1119 20.6922 16.9281C20.6922 22.9784 20.6922 29.0203 20.6922 35.0706C20.6922 35.6933 20.9278 35.9373 21.4999 35.9373C28.3146 35.9373 35.1293 35.9373 41.9525 35.9373C42.0534 35.9373 42.1628 35.9205 42.2049 35.9121C42.2049 35.2136 42.1628 34.5573 42.2133 33.9093C42.2637 33.2446 42.4068 32.5966 42.5161 31.9403C41.4897 31.8477 41.0354 31.5532 40.8756 30.8632C40.7409 30.2994 40.9933 29.643 41.5402 29.4158C41.8515 29.2812 42.2553 29.2391 42.5834 29.3148C42.9032 29.3906 43.164 29.6767 43.4668 29.8786C44.2997 28.4397 45.4692 27.2868 46.9415 26.4285C46.26 25.8479 46.0749 25.3009 46.3189 24.6866C46.5377 24.1397 47.1098 23.7778 47.6903 23.862C48.641 23.9966 48.9523 24.6614 48.9186 25.5702C50.2563 25.1999 51.5688 25.0906 52.9149 25.2841C52.9233 21.6573 52.9233 18.0726 52.9233 14.4626ZM20.6922 11.7193C31.4696 11.7193 42.1964 11.7193 52.9401 11.7193C52.9401 10.1373 52.9485 8.58899 52.9317 7.03224C52.9317 6.66198 52.6961 6.39271 52.3344 6.38429C51.207 6.35905 50.0712 6.37588 48.9018 6.37588C48.9018 6.81345 48.9018 7.21736 48.9018 7.61286C48.8934 8.46276 48.3297 9.06022 47.5473 9.05181C46.7816 9.04339 46.2264 8.44593 46.218 7.62128C46.218 7.20895 46.218 6.79662 46.218 6.38429C43.5005 6.38429 40.8419 6.38429 38.1581 6.38429C38.1581 6.79662 38.1581 7.1837 38.1581 7.57079C38.1581 8.44593 37.586 9.06022 36.7951 9.05181C36.0211 9.04339 35.4743 8.43752 35.4743 7.57079C35.4743 7.17529 35.4743 6.77137 35.4743 6.38429C32.7568 6.38429 30.0982 6.38429 27.4144 6.38429C27.4144 6.79662 27.4144 7.1837 27.4144 7.57079C27.406 8.45435 26.8507 9.06022 26.0515 9.04339C25.2774 9.03498 24.7306 8.42069 24.7306 7.56237C24.7306 7.16687 24.7306 6.76296 24.7306 6.35063C23.5864 6.35063 22.5095 6.34222 21.4326 6.35063C20.9867 6.35063 20.7091 6.61149 20.7091 7.04907C20.6838 8.60582 20.6922 10.1457 20.6922 11.7193ZM51.6193 27.8759C47.8754 27.8759 44.8803 30.88 44.8803 34.6246C44.8803 38.2851 47.9006 41.306 51.5519 41.3144C55.3211 41.3144 58.3162 38.3187 58.3162 34.5489C58.3078 30.8884 55.279 27.8759 51.6193 27.8759Z" fill="#2D3E50"/>
<path d="M31.4612 18.4693C32.1931 18.4777 32.7905 19.0836 32.7905 19.8073C32.7905 20.5562 32.1763 21.1621 31.4275 21.1537C30.6788 21.1453 30.0814 20.5141 30.1067 19.7652C30.1151 19.0415 30.7208 18.4609 31.4612 18.4693Z" fill="#2D3E50"/>
<path d="M36.7783 21.1537C36.0464 21.1369 35.4659 20.531 35.4743 19.7989C35.4827 19.05 36.1053 18.4525 36.854 18.4693C37.586 18.4862 38.1665 19.092 38.1581 19.8241C38.1497 20.5731 37.5271 21.1705 36.7783 21.1537Z" fill="#2D3E50"/>
<path d="M40.8419 19.8073C40.8503 19.0584 41.4645 18.4609 42.2133 18.4693C42.9452 18.4777 43.5342 19.0836 43.5257 19.8157C43.5257 20.5646 42.9032 21.1621 42.1544 21.1537C41.4308 21.1453 40.8419 20.5394 40.8419 19.8073Z" fill="#2D3E50"/>
<path d="M47.5809 21.1537C46.8489 21.1621 46.2432 20.573 46.2264 19.8409C46.2095 19.092 46.8153 18.4693 47.5556 18.4609C48.3044 18.4525 48.9186 19.0668 48.9102 19.8157C48.9018 20.5562 48.3128 21.1452 47.5809 21.1537Z" fill="#2D3E50"/>
<path d="M27.406 25.1928C27.406 25.9417 26.7834 26.5476 26.043 26.5392C25.3111 26.5308 24.7222 25.9249 24.7222 25.1928C24.7222 24.4439 25.3363 23.838 26.0851 23.8548C26.8171 23.8548 27.406 24.4607 27.406 25.1928Z" fill="#2D3E50"/>
<path d="M32.7821 25.1844C32.7821 25.9333 32.1679 26.5392 31.4191 26.5307C30.6872 26.5223 30.0983 25.9165 30.0983 25.1844C30.0983 24.4354 30.7124 23.8296 31.4612 23.838C32.1932 23.8548 32.7821 24.4523 32.7821 25.1844Z" fill="#2D3E50"/>
<path d="M35.4743 25.1844C35.4743 24.4355 36.0884 23.8296 36.8372 23.8464C37.5692 23.8548 38.1581 24.4607 38.1581 25.1928C38.1581 25.9417 37.5439 26.5476 36.7951 26.5308C36.0632 26.5223 35.4659 25.9165 35.4743 25.1844Z" fill="#2D3E50"/>
<path d="M43.5342 25.2096C43.5258 25.9585 42.9032 26.5559 42.1544 26.5307C41.4225 26.5139 40.842 25.8996 40.8504 25.1675C40.8588 24.4186 41.4898 23.8211 42.2386 23.8464C42.9537 23.8632 43.5426 24.4775 43.5342 25.2096Z" fill="#2D3E50"/>
<path d="M27.406 30.5868C27.3976 31.3357 26.775 31.9247 26.0178 31.9079C25.2943 31.8911 24.7053 31.2768 24.7222 30.5447C24.7306 29.7958 25.3616 29.1983 26.1103 29.2235C26.8339 29.2404 27.4144 29.8547 27.406 30.5868Z" fill="#2D3E50"/>
<path d="M30.0983 30.5446C30.1067 29.7957 30.7292 29.2067 31.4864 29.2235C32.21 29.2403 32.7989 29.8546 32.7905 30.5867C32.7821 31.3356 32.1511 31.9331 31.4023 31.9078C30.6704 31.8826 30.0814 31.2767 30.0983 30.5446Z" fill="#2D3E50"/>
<path d="M38.1581 30.5783C38.1497 31.3272 37.5271 31.9246 36.7783 31.9078C36.0464 31.891 35.4659 31.2767 35.4743 30.5446C35.4827 29.7957 36.1053 29.1982 36.854 29.2151C37.5776 29.2403 38.1665 29.8462 38.1581 30.5783Z" fill="#2D3E50"/>
<path d="M51.1313 34.9877C51.8464 34.0116 52.5195 33.086 53.2009 32.1688C53.5459 31.7059 54.017 31.5376 54.5723 31.6554C55.1107 31.7733 55.5061 32.1183 55.5734 32.6568C55.6155 33.0018 55.5566 33.4394 55.3631 33.7171C54.4124 35.0971 53.4113 36.4435 52.4101 37.7899C51.9389 38.4294 51.0892 38.522 50.4835 38.0087C49.6337 37.285 48.8008 36.5361 47.9847 35.7703C47.4379 35.257 47.421 34.466 47.9006 33.9191C48.3801 33.3721 49.1962 33.3048 49.7852 33.7928C50.2311 34.1715 50.6601 34.567 51.1313 34.9877Z" fill="#2D3E50"/>
</svg>
