<svg width="55" height="43" viewBox="0 0 55 43" fill="none" xmlns="http://www.w3.org/2000/svg">
<circle opacity="0.5" cx="20" cy="20" r="20" fill="#2A5C8C"/>
<path d="M25.6902 1C34.5562 1 43.4141 1 52.28 1C52.3041 1.01604 52.3202 1.03209 52.3522 1.04011C54.1736 1.55351 55 2.62845 55 4.52162C55 14.902 55 25.2743 55 35.6547C55 37.0184 54.6229 38.2939 53.8526 39.425C52.7775 40.9892 51.3092 41.984 49.3836 41.992C39.7153 42.0241 30.0389 42.008 20.3706 42C17.6667 42 15.2838 40.2913 14.3771 37.7404C14.2166 37.2831 14.1204 36.7938 14 36.3205C14 35.7028 14 35.0931 14 34.4754C14.0241 34.4273 14.0481 34.3792 14.0642 34.3311C14.5055 32.6464 15.6689 31.756 17.402 31.756C19.111 31.756 20.82 31.756 22.529 31.756C22.6734 31.756 22.8098 31.756 22.9703 31.756C22.9703 31.5555 22.9703 31.4111 22.9703 31.2667C22.9703 27.6247 22.9703 23.9828 22.9703 20.3408C22.9703 15.0063 22.9703 9.67169 22.9703 4.32909C22.9703 2.66856 23.9331 1.46527 25.5458 1.0722C25.602 1.05615 25.6421 1.02407 25.6902 1ZM25.5297 31.74C25.8266 31.74 26.0753 31.74 26.3321 31.74C31.8041 31.74 37.2761 31.74 42.7481 31.74C44.4331 31.74 45.7168 32.8229 45.9896 34.4674C46.0538 34.8605 46.0217 35.2616 46.0297 35.6627C46.0618 36.7456 46.3988 37.7003 47.1611 38.4944C48.3245 39.7138 50.0656 39.7378 51.2611 38.5506C52.0795 37.7323 52.4325 36.7216 52.4325 35.5825C52.4325 25.1861 52.4325 14.7977 52.4325 4.40129C52.4325 3.76756 52.2239 3.55899 51.598 3.55899C43.2295 3.55899 34.8611 3.55899 26.5006 3.55899C25.6902 3.55899 25.5297 3.71943 25.5297 4.54569C25.5297 11.3884 25.5297 18.2311 25.5297 25.0818C25.5297 27.2878 25.5297 29.4858 25.5297 31.74ZM44.6096 39.433C43.7832 38.1174 43.4221 36.7617 43.4622 35.2937C43.4863 34.4754 43.3018 34.307 42.4914 34.307C36.1288 34.307 29.7661 34.307 23.4035 34.307C21.3896 34.307 19.3757 34.307 17.3618 34.307C16.7841 34.307 16.5675 34.5316 16.5675 35.1092C16.5675 35.2135 16.5675 35.3258 16.5675 35.4301C16.5515 37.7484 18.2123 39.425 20.5311 39.425C27.3591 39.433 34.1951 39.425 41.0231 39.425C42.1945 39.433 43.3659 39.433 44.6096 39.433Z" fill="#2D3E50"/>
<path d="M33.0558 13.1692C33.6335 12.4072 34.155 11.7012 34.6846 11.0033C35.1098 10.4418 35.527 9.87223 35.9523 9.31069C36.4658 8.62883 37.228 8.49246 37.8378 8.94971C38.4315 9.39894 38.5118 10.169 38.0143 10.8268C36.7867 12.4713 35.5591 14.1158 34.3235 15.7523C33.7458 16.5224 32.9114 16.5785 32.2294 15.9047C31.427 15.1025 30.6247 14.3083 29.8223 13.4981C29.2447 12.9125 29.2206 12.1424 29.7501 11.613C30.2797 11.0835 31.0499 11.1156 31.6357 11.6932C32.109 12.1745 32.5664 12.6558 33.0558 13.1692Z" fill="#2D3E50"/>
<path d="M33.0719 23.3972C33.9625 22.21 34.821 21.0709 35.6795 19.9317C35.7998 19.7713 35.9122 19.6109 36.0406 19.4504C36.5059 18.8729 37.2601 18.7605 37.8218 19.1777C38.4075 19.6109 38.5359 20.3729 38.0865 20.9826C37.212 22.1779 36.3134 23.3571 35.4308 24.5363C35.0617 25.0256 34.7006 25.523 34.3235 26.0043C33.7539 26.7584 32.9274 26.8226 32.2615 26.1648C31.4351 25.3465 30.6167 24.5283 29.7983 23.702C29.2607 23.1565 29.2447 22.3945 29.7421 21.873C30.2556 21.3436 31.0339 21.3436 31.5955 21.8811C31.8443 22.1217 32.085 22.3704 32.3337 22.6191C32.5584 22.8758 32.791 23.1164 33.0719 23.3972Z" fill="#2D3E50"/>
<path d="M44.73 13.8109C43.9197 13.8109 43.1013 13.8109 42.2909 13.8109C41.4805 13.8029 40.9028 13.2654 40.9108 12.5274C40.9108 11.7814 41.4885 11.252 42.2989 11.252C43.9277 11.252 45.5484 11.252 47.1772 11.252C48.0277 11.252 48.5973 11.7734 48.5973 12.5355C48.5973 13.2895 48.0116 13.8109 47.1692 13.8109C46.3508 13.8109 45.5404 13.8109 44.73 13.8109Z" fill="#2D3E50"/>
<path d="M44.738 24.055C43.9276 24.055 43.1092 24.055 42.2988 24.055C41.4885 24.055 40.9108 23.5255 40.9108 22.7795C40.9108 22.0335 41.4724 21.496 42.2908 21.496C43.9436 21.496 45.5965 21.488 47.2493 21.496C48.0276 21.496 48.5973 22.0415 48.6053 22.7715C48.6053 23.5015 48.0436 24.055 47.2654 24.055C46.4149 24.063 45.5724 24.055 44.738 24.055Z" fill="#2D3E50"/>
</svg>
