<svg xmlns="http://www.w3.org/2000/svg" xmlns:xlink="http://www.w3.org/1999/xlink" version="1.1" x="0px" y="0px" viewBox="0 0 512 640" style="enable-background:new 0 0 512 512;" xml:space="preserve"><g><g><path d="M136.442,33.105c-3.032,3.06-5.672,6.738-7.233,10.551l205.844,213.247c1.702,1.759,1.71,4.538,0,6.272L135.739,468.736    c4.055,3.709,10.594,9.305,15.985,13.373c2.718,2.038,1.858,6.521,3.108,5.26l228.486-228.855l0.111-0.271l-0.111-0.305    L149.613,26.313l-0.359-0.202c-1.078-0.304-2.843,0.178-4.93,1.183C141.738,28.553,138.974,30.586,136.442,33.105 M119.639,43.626    v-0.078c1.741-6.217,5.726-12.186,10.334-16.83c3.267-3.262,6.922-5.945,10.375-7.612c3.977-1.92,7.953-2.668,11.344-1.734    c1.633,0.459,3.126,1.293,4.344,2.498l233.71,231.648c1.846,1.813,2.793,4.256,2.793,6.683c0,2.426-0.932,4.862-2.753,6.716    L161.3,493.771c-2.938,2.966-8.758,0.336-15.078-4.404c-7.6-5.739-17.516-14.588-20.186-17.218    c-1.782-1.782-1.782-4.667-0.041-6.402l199.474-205.71L120.74,47.961C119.568,46.77,119.209,45.105,119.639,43.626z"/></g></g><text x="0" y="527" fill="#000000" font-size="5px" font-weight="bold" font-family="'Helvetica Neue', Helvetica, Arial-Unicode, Arial, Sans-serif">Created by ibrandify</text><text x="0" y="532" fill="#000000" font-size="5px" font-weight="bold" font-family="'Helvetica Neue', Helvetica, Arial-Unicode, Arial, Sans-serif">from the Noun Project</text></svg>